<?xml version="1.0" encoding="UTF-8"?>
<svg width="436px" height="654px" viewBox="0 0 436 654" version="1.1" xmlns="http://www.w3.org/2000/svg" xmlns:xlink="http://www.w3.org/1999/xlink">
    <title>蒙板2</title>
    <defs>
        <linearGradient x1="50%" y1="13.1637893%" x2="50%" y2="100%" id="linearGradient-1">
            <stop stop-color="#1A1A22" offset="0%"></stop>
            <stop stop-color="#000000" stop-opacity="0" offset="100%"></stop>
        </linearGradient>
        <linearGradient x1="50%" y1="0%" x2="50%" y2="100%" id="linearGradient-2">
            <stop stop-color="#1A1A22" offset="0%"></stop>
            <stop stop-color="#1A1A22" stop-opacity="0.942990603" offset="25.6473995%"></stop>
            <stop stop-color="#000000" stop-opacity="0" offset="100%"></stop>
        </linearGradient>
    </defs>
    <g id="页面-1" stroke="none" stroke-width="1" fill="none" fill-rule="evenodd">
        <g id="首页" transform="translate(-548, -172)">
            <g id="蒙板2" transform="translate(548, 172)">
                <path d="M20,0 L416,0 C427.045695,-2.02906125e-15 436,8.954305 436,20 L436,200 L436,200 L0,200 L0,20 C-1.3527075e-15,8.954305 8.954305,1.3527075e-15 20,0 Z" id="蒙版" fill="url(#linearGradient-1)"></path>
                <path d="M20,294 L416,294 C427.045695,294 436,302.954305 436,314 L436,654 L436,654 L0,654 L0,314 C-1.3527075e-15,302.954305 8.954305,294 20,294 Z" id="蒙版备份" fill="url(#linearGradient-2)" transform="translate(218, 474) scale(1, -1) translate(-218, -474)"></path>
            </g>
        </g>
    </g>
</svg>