<?xml version="1.0" encoding="UTF-8"?>
<svg width="36px" height="36px" viewBox="0 0 36 36" version="1.1" xmlns="http://www.w3.org/2000/svg" xmlns:xlink="http://www.w3.org/1999/xlink">
    <title>手机号</title>
    <g id="页面-1" stroke="none" stroke-width="1" fill="none" fill-rule="evenodd">
        <g id="登录" transform="translate(-1128, -699)" stroke="#FFFFFF" stroke-width="2">
            <g id="登录-已输入备份-2" transform="translate(1040, 287)">
                <g id="编组备份" transform="translate(64, 386)">
                    <g id="手机号" transform="translate(24, 26)">
                        <g transform="translate(5, 2)" id="矩形">
                            <path d="M4,14 L22,14 C24.209139,14 26,15.790861 26,18 L26,26 C26,28.209139 24.209139,30 22,30 L4,30 C1.790861,30 1.3527075e-16,28.209139 0,26 L0,18 C-2.705415e-16,15.790861 1.790861,14 4,14 Z"></path>
                            <path d="M12,0 L14,0 C18.418278,-8.11624501e-16 22,3.581722 22,8 L22,14 L22,14 L4,14 L4,8 C4,3.581722 7.581722,5.41083001e-16 12,0 Z"></path>
                        </g>
                    </g>
                </g>
            </g>
        </g>
    </g>
</svg>