<?xml version="1.0" encoding="UTF-8"?>
<svg width="64px" height="64px" viewBox="0 0 64 64" version="1.1" xmlns="http://www.w3.org/2000/svg" xmlns:xlink="http://www.w3.org/1999/xlink">
    <title>游戏服务器</title>
    <defs>
        <linearGradient x1="2.60000355e-12%" y1="28.875%" x2="100%" y2="71.125%" id="linearGradient-1">
            <stop stop-color="#FFFFFF" stop-opacity="0.5" offset="0%"></stop>
            <stop stop-color="#FFFFFF" stop-opacity="0.8" offset="100%"></stop>
        </linearGradient>
    </defs>
    <g id="页面-1" stroke="none" stroke-width="1" fill="none" fill-rule="evenodd">
        <g id="游戏详情，无资讯" transform="translate(-1748, -688)" fill="url(#linearGradient-1)">
            <g id="编组-2备份" transform="translate(712, 576)">
                <g id="编组-8" transform="translate(108, 104)">
                    <g id="游戏服务器" transform="translate(928, 8)">
                        <g transform="translate(2, 12)" id="形状结合">
                            <path d="M60,23 L60,35 C60,37.209139 58.209139,39 56,39 L4,39 C1.790861,39 1.3527075e-16,37.209139 0,35 L0,23 L60,23 Z M52,25 L8,25 C4.6862915,25 2,27.6862915 2,31 C2,34.3137085 4.6862915,37 8,37 L52,37 C55.3137085,37 58,34.3137085 58,31 C58,27.6862915 55.3137085,25 52,25 Z M53,30 C53.5522847,30 54,30.4477153 54,31 C54,31.5522847 53.5522847,32 53,32 L47,32 C46.4477153,32 46,31.5522847 46,31 C46,30.4477153 46.4477153,30 47,30 L53,30 Z M43,30 C43.5522847,30 44,30.4477153 44,31 C44,31.5522847 43.5522847,32 43,32 L41,32 C40.4477153,32 40,31.5522847 40,31 C40,30.4477153 40.4477153,30 41,30 L43,30 Z M47.4243469,-8.8817842e-16 C48.9929209,-1.17632078e-15 50.4167323,0.916811084 51.0658128,2.34478822 L60,22 L0,22 L8.93418717,2.34478822 C9.58326769,0.916811084 11.0070791,2.95267762e-15 12.5756531,2.66453526e-15 L47.4243469,-8.8817842e-16 Z"></path>
                        </g>
                    </g>
                </g>
            </g>
        </g>
    </g>
</svg>