<?xml version="1.0" encoding="UTF-8"?>
<svg width="64px" height="64px" viewBox="0 0 64 64" version="1.1" xmlns="http://www.w3.org/2000/svg" xmlns:xlink="http://www.w3.org/1999/xlink">
    <title>电脑</title>
    <defs>
        <linearGradient x1="2.60000355e-12%" y1="13.02%" x2="100%" y2="86.98%" id="linearGradient-1">
            <stop stop-color="#FFFFFF" stop-opacity="0.5" offset="0%"></stop>
            <stop stop-color="#FFFFFF" stop-opacity="0.8" offset="100%"></stop>
        </linearGradient>
    </defs>
    <g id="页面-1" stroke="none" stroke-width="1" fill="none" fill-rule="evenodd">
        <g id="游戏详情，无资讯" transform="translate(-820, -688)" fill="url(#linearGradient-1)">
            <g id="编组-2备份" transform="translate(712, 576)">
                <g id="编组-8" transform="translate(108, 104)">
                    <g id="电脑" transform="translate(0, 8)">
                        <g transform="translate(7, 10)" id="形状结合">
                            <path d="M48,0 C49.1045695,-2.02906125e-16 50,0.8954305 50,2 L50,34 C50,35.1045695 49.1045695,36 48,36 L29,36 L29,42 L36.5,42 C36.7761424,42 37,42.2238576 37,42.5 C37,42.7761424 36.7761424,43 36.5,43 L13.5,43 C13.2238576,43 13,42.7761424 13,42.5 C13,42.2238576 13.2238576,42 13.5,42 L21,42 L21,36 L2,36 C0.8954305,36 6.76353751e-17,35.1045695 0,34 L0,2 C-1.3527075e-16,0.8954305 0.8954305,1.3527075e-16 2,0 L48,0 Z M2,31 L2,32 C2,33.1045695 2.8954305,34 4,34 L46,34 C47.1045695,34 48,33.1045695 48,32 L48,31 L2,31 Z"></path>
                        </g>
                    </g>
                </g>
            </g>
        </g>
    </g>
</svg>