<?xml version="1.0" encoding="UTF-8"?>
<svg width="114px" height="114px" viewBox="0 0 114 114" version="1.1" xmlns="http://www.w3.org/2000/svg" xmlns:xlink="http://www.w3.org/1999/xlink">
    <title>未登录头像</title>
    <defs>
        <circle id="path-1" cx="57" cy="57" r="57"></circle>
    </defs>
    <g id="页面-1" stroke="none" stroke-width="1" fill="none" fill-rule="evenodd">
        <g id="账号设置" transform="translate(-1747, -391)">
            <g id="编组-2备份-4" transform="translate(324, 163)">
                <g id="未登录头像" transform="translate(1423, 228)">
                    <rect id="_mockplus_fix_" x="0" y="0" width="114" height="114"></rect>
                    <g>
                        <mask id="mask-2" fill="white">
                            <use xlink:href="#path-1"></use>
                        </mask>
                        <use id="蒙版" fill="#F0F0F0" xlink:href="#path-1"></use>
                        <g id="用户" mask="url(#mask-2)" fill-rule="nonzero">
                            <g transform="translate(25, 24)">
                                <rect id="矩形" fill="#000000" opacity="0" x="0" y="1" width="64" height="64"></rect>
                                <path d="M32.6967122,0 C33.9250183,0 35.1427557,0.138395833 36.3499241,0.415187499 C37.5570926,0.691979165 38.6901342,1.0645625 39.7490488,1.5329375 C40.8079635,2.0013125 41.7503929,2.53358333 42.5763372,3.12974999 C43.4022815,3.72591666 44.048224,4.32206249 44.5141647,4.91818749 C45.6153961,6.28077082 46.4201613,7.78177082 46.9284602,9.42118748 C47.4367591,11.0606041 47.7967835,12.6254583 48.0085332,14.11575 C48.2203245,15.8190416 48.3262201,17.5436041 48.3262201,19.2894375 C48.6227278,19.5023541 48.8556774,19.779125 49.0250689,20.11975 C49.1945019,20.4178333 49.3321662,20.8010625 49.4380618,21.2694375 C49.5439574,21.7378125 49.5545469,22.3126666 49.4698305,22.994 C49.385114,23.8882083 49.2051122,24.6014583 48.929825,25.13375 C48.6545379,25.6660416 48.3474406,26.0812083 48.0085332,26.3792499 C47.6273505,26.7199166 47.2249679,26.9541041 46.8013855,27.0818124 C46.5895943,27.8057291 46.377803,28.4870416 46.1660118,29.1257499 C45.9542206,29.6792916 45.7106814,30.2222083 45.4353943,30.7544999 C45.1601072,31.2867916 44.8530099,31.7019583 44.5141025,32 C43.7092959,32.6387499 43.0527638,33.1816666 42.5445064,33.6287499 C42.0362489,34.0758333 41.6974037,34.8316666 41.5279707,35.8962499 C41.400896,36.5349583 41.3585377,37.1843124 41.400896,37.8443124 C41.4432542,38.5043124 41.623256,39.1643124 41.9409014,39.8243124 C42.2585468,40.4843124 42.7456459,41.1123958 43.4021986,41.7085624 C44.0587514,42.3047291 44.9800017,42.8370208 46.1659497,43.3054374 C47.2249057,43.7312291 48.3791264,44.1144374 49.6286117,44.4550624 C50.878097,44.7956874 52.095855,45.1895832 53.2818858,45.6367499 C54.4679167,46.0839166 55.516221,46.6374582 56.4267989,47.2973749 C57.3373768,47.9572916 57.9833193,48.8621666 58.3646264,50.0119999 C58.5764176,50.6932499 58.735261,51.5342291 58.8411566,52.5349374 C58.9470522,53.5356457 59,54.5469582 59,55.5688749 C59,56.5907916 58.9258731,57.5488749 58.7776192,58.4431249 C58.6293654,59.3373749 58.4070053,60.0186666 58.1105391,60.4869999 C57.8987478,60.7850832 57.2951429,61.0831666 56.2997242,61.3812499 C55.3043054,61.6793332 54.0759786,61.9667499 52.6147435,62.2434999 C51.1535085,62.5202499 49.522799,62.765104 47.7226151,62.9780624 C45.9224312,63.1910207 44.1116785,63.371979 42.2903569,63.5209374 C40.4690353,63.6698957 38.7218407,63.7869999 37.048773,63.8722499 C35.3757053,63.9574999 33.9249976,64 32.69665,64 C31.4683024,64 30.0387739,63.9573332 28.4080644,63.8722499 C26.7773549,63.7871665 25.0936769,63.6700832 23.3570304,63.5209999 C21.6203839,63.3719165 19.8943476,63.2015832 18.1789217,63.0099999 C16.4634957,62.8184165 14.9069132,62.6161457 13.509174,62.4031874 C12.1114349,62.190229 10.9254455,61.9773124 9.95120593,61.7644374 C8.97696634,61.5515624 8.36281326,61.3386665 8.10874669,61.1257499 C7.68516426,60.7850832 7.3569086,59.7418332 7.1239797,57.9959999 C6.89105081,56.2501666 6.98633614,53.9933541 7.40983568,51.2255624 C7.62162689,49.6500207 8.24639026,48.4471041 9.28412577,47.6168124 C10.3218613,46.7865207 11.529009,46.1264999 12.9055691,45.6367499 C14.2821291,45.1469999 15.7116576,44.7105416 17.1941547,44.3273749 C18.6766517,43.9442082 19.9897158,43.3906458 21.133347,42.6666874 C22.0227872,42.1131041 22.7004776,41.5808124 23.1664183,41.0698124 C23.632359,40.5588124 23.9712249,40.0478541 24.1830161,39.5369374 C24.3948073,39.0260208 24.500703,38.4937291 24.500703,37.9400624 C24.500703,37.3863958 24.4795031,36.7689791 24.4371034,36.0878124 C24.3524284,35.1084374 24.0136039,34.3313333 23.4206299,33.7564999 C22.827656,33.1816666 22.1711239,32.5961666 21.4510338,32 C21.1122093,31.7019166 20.8157223,31.2867499 20.5615728,30.7544999 C20.3074234,30.2222499 20.0744738,29.6793333 19.862724,29.1257499 C19.6509328,28.4869999 19.4391416,27.8056874 19.2273504,27.0818124 C18.9308426,26.9966458 18.6343557,26.8476249 18.3378894,26.6347499 C18.08374,26.4218333 17.8084114,26.12375 17.5119037,25.7405 C17.215396,25.35725 16.9612672,24.8037083 16.7495175,24.079875 C16.495368,23.3559583 16.4000412,22.6959375 16.4635372,22.0998125 C16.5270331,21.5036875 16.643539,20.9927083 16.8130548,20.566875 C16.9824878,20.0984583 17.2577957,19.6513541 17.6389784,19.2255625 C17.5966202,17.6074375 17.6813366,15.9893333 17.8931279,14.37125 C18.0625608,13.0086666 18.3696374,11.5396041 18.8143575,9.96406248 C19.2590776,8.38852082 19.9261992,6.98333332 20.8157223,5.74849999 C21.6204875,4.55620832 22.5205587,3.58747916 23.515936,2.84231249 C24.5113132,2.09714583 25.5278696,1.51164583 26.5656051,1.0858125 C27.6033407,0.659979165 28.6410762,0.372562499 29.6788117,0.2235625 C30.7165472,0.0745624999 31.722514,0 32.6967122,0 Z" id="路径" fill="#D9D9D9"></path>
                            </g>
                        </g>
                    </g>
                </g>
            </g>
        </g>
    </g>
</svg>