<?xml version="1.0" encoding="UTF-8"?>
<svg width="138px" height="138px" viewBox="0 0 138 138" version="1.1" xmlns="http://www.w3.org/2000/svg" xmlns:xlink="http://www.w3.org/1999/xlink">
    <title>成功</title>
    <g id="页面-1" stroke="none" stroke-width="1" fill="none" fill-rule="evenodd">
        <g id="实名认证成功" transform="translate(-931, -489)">
            <g id="编组-2备份-4" transform="translate(324, 163)">
                <g id="编组" transform="translate(607, 326)">
                    <path d="M125.646253,88.8283724 C127.818805,82.6213563 129,75.9486196 129,69 C129,35.862915 102.137085,9 69,9 C35.862915,9 9,35.862915 9,69 C9,102.137085 35.862915,129 69,129 C84.5591517,129 98.7350571,123.077619 109.396416,113.364157" id="路径" stroke="#00C44A" stroke-width="6" stroke-linecap="round" stroke-linejoin="round"></path>
                    <path d="M52.5857483,62.6207906 C56.2158498,65.5143788 59.7342977,68.3190385 63.2685771,71.1360663 C70.5934693,61.5003836 80.4349581,54.8393263 89.8644501,47.5 C90.3291679,48.1223472 90.7435129,48.6771634 91.2241379,49.3200734 C80.0474281,58.8328345 72.6817832,71.0417505 66.3366995,83.5 C60.2668106,77.7377115 54.1213245,71.9032636 47.7758621,65.8789701 C49.6351121,64.619859 51.0369919,63.6698728 52.5857483,62.6207906 Z" id="路径" fill="#00C44A" fill-rule="nonzero"></path>
                </g>
            </g>
        </g>
    </g>
</svg>