<?xml version="1.0" encoding="UTF-8"?>
<svg width="100px" height="96px" viewBox="0 0 100 96" version="1.1" xmlns="http://www.w3.org/2000/svg" xmlns:xlink="http://www.w3.org/1999/xlink">
    <title>yishiyong</title>
    <g id="页面-1" stroke="none" stroke-width="1" fill="none" fill-rule="evenodd">
        <g id="兑换码" transform="translate(-884, -3856)">
            <g id="编组-2备份-9" transform="translate(328, 3592)">
                <g id="编组-21备份-3" transform="translate(60, 200)">
                    <g id="yishiyong" transform="translate(496, 64)">
                        <rect id="矩形" fill="#000000" fill-rule="nonzero" opacity="0" x="0" y="0" width="120" height="120"></rect>
                        <text id="已使用" transform="translate(59.6238, 60.2816) rotate(-22) translate(-59.6238, -60.2816)" font-family="PingFangSC-Semibold, PingFang SC" font-size="24" font-weight="500" fill="#AAAAAA">
                            <tspan x="23.6238198" y="68.7815516">已使用</tspan>
                        </text>
                        <path d="M1.70808853,61.3080052 C2.65611893,61.3080052 3.41208236,60.5406002 3.41208236,59.6052632 C3.41208236,56.3194629 3.71207715,53.0217176 4.30011381,49.8080555 C9.01600844,24.2892925 31.3356207,5.77390513 57.3991913,5.77390513 C73.418913,5.77390513 88.5146273,12.8011707 98.8104249,25.0687596 C99.4104145,25.7882676 100.490396,25.8841786 101.210383,25.2845886 C101.930371,24.6849985 102.026346,23.6057364 101.426356,22.8862284 C90.470687,9.85123453 74.4268251,2.36842105 57.3991913,2.36842105 C29.6916258,2.36842105 5.9560616,22.0588644 0.952125098,49.1964034 C0.328112502,52.6020046 0.0040946938,56.1036339 0.0040946938,59.6052632 C0.0040946938,60.5406002 0.772128225,61.3080052 1.70808853,61.3080052 Z M106.802356,26.9875648 C106.478339,26.1121868 105.494332,25.6684667 104.606301,25.9921516 L86.7146585,32.6596632 C87.0266062,32.0721352 86.9786774,31.3165581 86.5107558,30.776927 C79.2747878,22.1548925 68.6549723,17.2023021 57.3871212,17.2023021 C39.0635333,17.2023021 23.3557593,30.225351 20.0438637,48.1771004 C19.623871,50.4315355 19.4198511,52.7459296 19.4198511,55.0603238 C19.4198511,55.9957779 20.1877675,56.7631829 21.1237278,56.7631829 C22.0717582,56.7631829 22.8277216,55.9957779 22.8277216,55.0604409 C22.8277216,52.9498137 23.0197886,50.8393036 23.4038053,48.7886354 C26.4157061,32.4557792 40.707411,20.5959584 57.3871212,20.5959584 C67.6469429,20.5959584 77.3067751,25.0928837 83.8947075,32.9475133 C84.0866573,33.1752872 84.3266531,33.3432193 84.5907892,33.4391302 L1.10798177,64.5697985 C0.220301875,64.8937176 -0.223831034,65.8770687 0.112139692,66.7645088 C0.364088439,67.4480649 1.02419416,67.8676608 1.70820571,67.8676608 C1.91210842,67.8676608 2.1041754,67.8317088 2.30819529,67.7598049 L105.806397,29.1822752 C106.682358,28.846411 107.138327,27.875122 106.802356,26.9876819 L106.802356,26.9875648 Z M119.894082,54.4726787 C119.570064,53.5974178 118.574105,53.1536977 117.698026,53.4774998 L14.1998246,92.0430845 C13.3119104,92.3668865 12.8678946,93.3502376 13.2039826,94.2376777 C13.2399585,94.3334716 13.2878873,94.4294997 13.3359334,94.5133486 C12.961997,95.1366068 13.0297172,95.9291699 13.5039773,96.4800508 C24.4476935,109.419251 40.4435093,116.842105 57.3991913,116.842105 C89.042665,116.842105 114.782218,91.1677065 114.782218,59.6052632 C114.782218,59.1255911 114.578198,58.6939331 114.266133,58.382076 L118.898123,56.655327 C119.774084,56.3315249 120.2181,55.3481739 119.894082,54.4727958 L119.894082,54.4726787 Z M94.1785523,65.8769516 C93.2664978,84.0804819 78.1348076,98.6145679 59.6670816,98.6145679 C50.2113865,98.6145679 41.2594717,94.7771917 34.7555612,88.0258312 L94.1785523,65.8769516 Z M111.37423,59.6052632 C111.37423,89.2849703 87.1586743,113.436504 57.3991913,113.436504 C41.6794644,113.436504 26.8356988,106.649075 16.5639242,94.8011987 L31.3117148,89.3088602 C38.5235427,97.3913808 48.8072702,102.008224 59.6791517,102.008224 C80.462814,102.008224 97.4064259,85.2557721 97.6464217,64.5818605 L111.386183,59.4613381 C111.37423,59.5093522 111.37423,59.5573662 111.37423,59.6052632 L111.37423,59.6052632 Z" id="形状" fill="#AAAAAA" fill-rule="nonzero"></path>
                    </g>
                </g>
            </g>
        </g>
    </g>
</svg>