<?xml version="1.0" encoding="UTF-8"?>
<svg width="64px" height="64px" viewBox="0 0 64 64" version="1.1" xmlns="http://www.w3.org/2000/svg" xmlns:xlink="http://www.w3.org/1999/xlink">
    <title>游戏服务器</title>
    <g id="页面-1" stroke="none" stroke-width="1" fill="none" fill-rule="evenodd">
        <g id="游戏详情" transform="translate(-1667, -756)">
            <g id="编组-2备份" transform="translate(630, 632)">
                <g id="游戏服务器" transform="translate(1037, 124)">
                    <g transform="translate(12, 6)">
                        <path d="M2,0 L38,0 C39.1045695,-2.02906125e-16 40,0.8954305 40,2 L40,48 C40,49.1045695 39.1045695,50 38,50 L2,50 C0.8954305,50 6.76353751e-17,49.1045695 0,48 L0,2 C-1.3527075e-16,0.8954305 0.8954305,1.3527075e-16 2,0 Z" id="矩形" stroke="#999999" stroke-width="3" stroke-linecap="round" stroke-linejoin="round"></path>
                        <path d="M8,7 L32,7 C32.5522847,7 33,7.44771525 33,8 L33,14 C33,14.5522847 32.5522847,15 32,15 L8,15 C7.44771525,15 7,14.5522847 7,14 L7,8 C7,7.44771525 7.44771525,7 8,7 Z" id="矩形" stroke="#999999" stroke-width="2" stroke-linecap="round" stroke-linejoin="round"></path>
                        <path d="M8,21 L32,21 C32.5522847,21 33,21.4477153 33,22 L33,28 C33,28.5522847 32.5522847,29 32,29 L8,29 C7.44771525,29 7,28.5522847 7,28 L7,22 C7,21.4477153 7.44771525,21 8,21 Z" id="矩形备份" stroke="#999999" stroke-width="2" stroke-linecap="round" stroke-linejoin="round"></path>
                        <path d="M8,35 L32,35 C32.5522847,35 33,35.4477153 33,36 L33,42 C33,42.5522847 32.5522847,43 32,43 L8,43 C7.44771525,43 7,42.5522847 7,42 L7,36 C7,35.4477153 7.44771525,35 8,35 Z" id="矩形备份-2" stroke="#999999" stroke-width="2" stroke-linecap="round" stroke-linejoin="round"></path>
                        <path d="M13,13 C14.1045695,13 15,12.1045695 15,11 C15,9.8954305 14.1045695,9 13,9 C11.8954305,9 11,9.8954305 11,11 C11,12.1045695 11.8954305,13 13,13 Z" id="椭圆形" fill="#999999"></path>
                        <path d="M13,27 C14.1045695,27 15,26.1045695 15,25 C15,23.8954305 14.1045695,23 13,23 C11.8954305,23 11,23.8954305 11,25 C11,26.1045695 11.8954305,27 13,27 Z" id="椭圆形备份" fill="#999999"></path>
                        <path d="M13,41 C14.1045695,41 15,40.1045695 15,39 C15,37.8954305 14.1045695,37 13,37 C11.8954305,37 11,37.8954305 11,39 C11,40.1045695 11.8954305,41 13,41 Z" id="椭圆形备份-2" fill="#999999"></path>
                    </g>
                </g>
            </g>
        </g>
    </g>
</svg>