<?xml version="1.0" encoding="UTF-8"?>
<svg width="64px" height="64px" viewBox="0 0 64 64" version="1.1" xmlns="http://www.w3.org/2000/svg" xmlns:xlink="http://www.w3.org/1999/xlink">
    <title>路由器</title>
    <g id="页面-1" stroke="none" stroke-width="1" fill="none" fill-rule="evenodd" stroke-linecap="round" stroke-linejoin="round">
        <g id="游戏详情" transform="translate(-1243, -756)" stroke="#999999" stroke-width="3">
            <g id="编组-2备份" transform="translate(630, 632)">
                <g id="路由器" transform="translate(613, 124)">
                    <g transform="translate(3, 7)">
                        <path d="M8.59874175,17 L49.4012582,17 C50.3360998,17 51.1462312,17.6475954 51.3521403,18.5594783 L57.4489144,45.5594783 C57.6922079,46.6369206 57.0159966,47.7075886 55.9385542,47.950882 C55.7939871,47.9835262 55.6462394,48 55.4980324,48 L2.50196756,48 C1.39739806,48 0.501967559,47.1045695 0.501967559,46 C0.501967559,45.8517931 0.51844137,45.7040454 0.551085555,45.5594783 L6.64785975,18.5594783 C6.85376877,17.6475954 7.66390015,17 8.59874175,17 Z" id="矩形"></path>
                        <path d="M5.5,38 L52.5,38 C54.4329966,38 56,39.5670034 56,41.5 L56,44.5 C56,46.4329966 54.4329966,48 52.5,48 L5.5,48 C3.56700338,48 2,46.4329966 2,44.5 L2,41.5 C2,39.5670034 3.56700338,38 5.5,38 Z" id="矩形"></path>
                        <line x1="18" y1="-2.01241801e-13" x2="18" y2="17" id="路径-2"></line>
                        <line x1="29" y1="-2.01241801e-13" x2="29" y2="17" id="路径-2备份"></line>
                        <line x1="40" y1="-2.01241801e-13" x2="40" y2="17" id="路径-2备份-2"></line>
                    </g>
                </g>
            </g>
        </g>
    </g>
</svg>