<?xml version="1.0" encoding="UTF-8"?>
<svg width="160px" height="160px" viewBox="0 0 160 160" version="1.1" xmlns="http://www.w3.org/2000/svg" xmlns:xlink="http://www.w3.org/1999/xlink">
    <title>我的游戏</title>
    <g id="页面-1" stroke="none" stroke-width="1" fill="none" fill-rule="evenodd" opacity="0.198128">
        <g id="首页不足4个" transform="translate(-1196, -1030)" fill="#FFFFFF">
            <g id="编组-2" transform="translate(1016, 974)">
                <g id="编组-4" transform="translate(180, 56)">
                    <path d="M128.119546,22 C136.607935,22 143.892511,28.0459293 145.456461,36.3889982 L159.747312,112.625173 C161.240241,120.589375 155.994238,128.255895 148.030036,129.748824 C147.138673,129.915915 146.233737,130 145.326848,130 L138.610451,130 C131.898281,130 125.76781,126.190436 122.795401,120.172295 L120.836657,116.20649 C117.864248,110.188349 111.733777,106.378785 105.021607,106.378785 L54.9768807,106.378785 C48.2647101,106.378785 42.1342399,110.188349 39.1618304,116.20649 L37.2030865,120.172295 C34.2306771,126.190436 28.1002068,130 21.3880362,130 L14.6716396,130 C6.5687168,130 -2.6956215e-13,123.431283 -2.7000624e-13,115.32836 C-2.7000624e-13,114.421471 0.0840850574,113.516536 0.251175528,112.625173 L14.5420263,36.3889982 C16.1059761,28.0459293 23.3905529,22 31.8789413,22 L128.119546,22 Z M48.6030917,46.6983607 L48.5666613,46.6983607 C46.1312389,46.6983607 44.1569389,48.6726606 44.1569389,51.108083 L44.156,60.242 L35.2828486,60.242623 C32.9190563,60.242623 30.9896605,62.1024955 30.8782114,64.4386902 L30.8731263,64.6523453 L30.8731263,64.8624088 C30.8731263,67.2978312 32.8474263,69.2721311 35.2828486,69.2721311 L44.156,69.272 L44.1569389,78.4066711 C44.1569389,80.7704634 46.0168115,82.6998593 48.3530062,82.8113083 L48.5666613,82.8163934 L48.6030917,82.8163934 C51.0385141,82.8163934 53.012814,80.8420935 53.012814,78.4066711 L53.012,69.272 L61.8869043,69.2721311 C64.2506967,69.2721311 66.1800925,67.4122586 66.2915416,65.0760638 L66.2966267,64.8624088 L66.2966267,64.6523453 C66.2966267,62.2169229 64.3223267,60.242623 61.8869043,60.242623 L53.012,60.242 L53.012814,51.108083 C53.012814,48.7442907 51.1529415,46.8148948 48.8167467,46.7034458 L48.6030917,46.6983607 Z M114.222539,50.1508197 C107.029944,50.1508197 101.199193,56.095891 101.199193,63.4295082 C101.199193,70.7631254 107.029944,76.7081967 114.222539,76.7081967 C121.415134,76.7081967 127.245885,70.7631254 127.245885,63.4295082 C127.245885,56.095891 121.415134,50.1508197 114.222539,50.1508197 Z M114.222539,56.347541 C118.05859,56.347541 121.168323,59.5182457 121.168323,63.4295082 C121.168323,67.3407707 118.05859,70.5114754 114.222539,70.5114754 C110.386488,70.5114754 107.276755,67.3407707 107.276755,63.4295082 C107.276755,59.5182457 110.386488,56.347541 114.222539,56.347541 Z" id="我的游戏"></path>
                </g>
            </g>
        </g>
    </g>
</svg>