<?xml version="1.0" encoding="UTF-8"?>
<svg width="160px" height="160px" viewBox="0 0 160 160" version="1.1" xmlns="http://www.w3.org/2000/svg" xmlns:xlink="http://www.w3.org/1999/xlink">
    <title>会员充值</title>
    <defs>
        <linearGradient x1="100%" y1="50%" x2="0%" y2="50%" id="linearGradient-1">
            <stop stop-color="#FFBFA6" offset="0%"></stop>
            <stop stop-color="#FFDCA6" offset="100%"></stop>
        </linearGradient>
    </defs>
    <g id="页面-1" stroke="none" stroke-width="1" fill="none" fill-rule="evenodd">
        <g id="首页" transform="translate(-280, -1030)">
            <g id="会员充值" transform="translate(280, 1030)">
                <g transform="translate(3, 22)">
                    <path d="M77,0 C81.9705627,0 86,4.02943725 86,9 C86,11.6354907 84.8671922,14.0063999 83.0619273,15.6523769 L104,49 L136.678227,30.4337404 C136.241147,29.3756262 136,28.2159746 136,27 C136,22.0294373 140.029437,18 145,18 C149.970563,18 154,22.0294373 154,27 C154,31.4672411 150.745292,35.1743043 146.477808,35.8792568 L139.11902,93.2716432 C138.479229,98.2620147 134.23142,102 129.200203,102 L24.7997965,102 C19.7685799,102 15.5207711,98.2620147 14.8809799,93.2716432 L7.52318909,35.8794215 C3.25521538,35.174882 0,31.4675891 0,27 C0,22.0294373 4.02943725,18 9,18 C13.9705627,18 18,22.0294373 18,27 C18,28.3096952 17.7202476,29.5540508 17.2172386,30.676571 L48,49 L70.6658525,15.3936364 C69.0196616,13.7626671 68,11.5004109 68,9 C68,4.02943725 72.0294373,0 77,0 Z" id="形状结合" fill="url(#linearGradient-1)"></path>
                    <path d="M58.3333333,62.7926829 C58.3333333,62.7926829 64.5555556,69.4390244 77,82.7317073 L95.6666667,62.7926829" id="路径-2" stroke="#FFFFFF" stroke-width="7.33333333" stroke-linecap="round" stroke-linejoin="round"></path>
                </g>
            </g>
        </g>
    </g>
</svg>